<svg xmlns="http://www.w3.org/2000/svg" viewBox="0 0 400 300">
  <!-- Background -->
  <rect width="400" height="300" fill="#f5f5f5" rx="20" ry="20"/>
  
  <!-- Molecular structure background -->
  <g fill="none" stroke="#306998" stroke-width="2" opacity="0.3">
    <path d="M50,150 L100,100 L150,150 L200,100 L250,150 L300,100 L350,150" />
    <circle cx="50" cy="150" r="8" fill="#FFD43B" />
    <circle cx="100" cy="100" r="8" fill="#FFD43B" />
    <circle cx="150" cy="150" r="8" fill="#FFD43B" />
    <circle cx="200" cy="100" r="8" fill="#FFD43B" />
    <circle cx="250" cy="150" r="8" fill="#FFD43B" />
    <circle cx="300" cy="100" r="8" fill="#FFD43B" />
    <circle cx="350" cy="150" r="8" fill="#FFD43B" />
  </g>
  
  <!-- Panda face -->
  <circle cx="200" cy="150" r="80" fill="white" stroke="#333" stroke-width="2"/>
  
  <!-- Panda ears -->
  <circle cx="140" cy="90" r="30" fill="#333"/>
  <circle cx="260" cy="90" r="30" fill="#333"/>
  
  <!-- Panda eyes -->
  <g>
    <ellipse cx="170" cy="140" rx="25" ry="28" fill="#333"/>
    <ellipse cx="230" cy="140" rx="25" ry="28" fill="#333"/>
    <circle cx="165" cy="135" r="5" fill="white"/>
    <circle cx="225" cy="135" r="5" fill="white"/>
  </g>
  
  <!-- Panda nose -->
  <ellipse cx="200" cy="170" rx="15" ry="10" fill="#333"/>
  
  <!-- Python symbol integration -->
  <g transform="translate(185, 190) scale(0.25)">
    <path d="M 128.65625 0 C 120.10154 0 112.04761 0.74590209 104.78125 1.96875 C 97.514892 3.1915979 90.723326 5.1020259 85.46875 7.625 C 80.214174 10.147974 76.20679 13.299661 73.75 16.9375 C 71.293211 20.575339 70.000001 24.82846 70 29.21875 L 70 38.28125 L 117.5 38.28125 L 117.5 42.0625 L 51.25 42.0625 C 46.445471 42.0625 42.097622 42.9233 38.125 44.65625 C 34.152378 46.38921 30.6159 48.856612 27.78125 51.96875 C 24.9466 55.080888 22.79343 58.854312 21.15625 63.25 C 19.51907 67.645688 18.562501 72.569974 18.5625 78.09375 C 18.5625 83.617526 19.51907 88.541812 21.15625 92.9375 C 22.79343 97.333188 24.9466 101.10661 27.78125 104.21875 C 30.6159 107.33089 34.152378 109.76704 38.125 111.5 C 42.097622 113.23296 46.445471 114.15625 51.25 114.15625 L 85.90625 114.15625 L 85.90625 129.21875 C 85.90625 133.60904 87.199461 137.86216 89.65625 141.5 C 92.11304 145.13784 95.58925 148.28953 100.84375 150.8125 C 106.09824 153.33547 111.89856 155.2459 119.165909 156.46875 C 126.43324 157.6916 134.51171 158.28125 143.0664 158.28125 C 151.62111 158.28125 159.67504 157.6916 166.94141 156.46875 C 174.20776 155.2459 180.96807 153.33547 186.22266 150.8125 C 191.47724 148.28953 195.51587 145.13784 197.97266 141.5 C 200.42945 137.86216 201.68749 133.60904 201.6875 129.21875 L 201.6875 73.09375 C 201.6875 68.703465 200.42945 64.48159 197.97266 60.84375 C 195.51587 57.20591 191.47724 54.053971 186.22266 51.53125 C 180.96807 49.008529 174.20776 47.09811 166.94141 45.875 C 159.67505 44.651891 151.62111 44.0625 143.0664 44.0625 L 105.78125 44.0625 L 105.78125 38.28125 L 154.34375 38.28125 L 154.34375 29.21875 C 154.34375 24.82846 153.0193 20.575339 150.5625 16.9375 C 148.10571 13.299661 144.08834 10.147974 138.83374 7.625 C 133.57916 5.1020259 126.78759 3.1915979 119.52124 1.96875 C 112.25488 0.74590209 104.20094 0 95.64624 0 L 128.65625 0 z M 113.96875 17.625 C 118.90594 17.625 122.90625 21.6253 122.90625 26.5625 C 122.90625 31.4997 118.90594 35.5 113.96875 35.5 C 109.03155 35.5 105.03125 31.4997 105.03125 26.5625 C 105.03125 21.6253 109.03156 17.625 113.96875 17.625 z " fill="#4584b6"/>
    <path d="M 128.65625,158.28125 C 137.21095,158.28125 145.26489,157.6916 152.53125,156.46875 C 159.7976,155.2459 166.55791,153.33547 171.8125,150.8125 C 177.06708,148.28953 181.10571,145.13784 183.5625,141.5 C 186.01929,137.86216 187.28125,133.60904 187.28125,129.21875 L 187.28125,120.15625 L 139.78125,120.15625 L 139.78125,116.375 L 206.03125,116.375 C 210.83578,116.375 215.18363,115.51296 219.15625,113.78 C 223.12887,112.04704 226.66535,109.58088 229.5,106.46875 C 232.33465,103.35662 234.48782,99.583196 236.125,95.1875 C 237.76218,90.791804 238.71875,85.867516 238.71875,80.34375 C 238.71875,74.819984 237.76218,69.895696 236.125,65.5 C 234.48782,61.104304 232.33465,57.33088 229.5,54.21875 C 226.66535,51.10662 223.12887,48.639212 219.15625,46.90625 C 215.18363,45.173288 210.83578,44.28125 206.03125,44.28125 L 171.375,44.28125 L 171.375,29.21875 C 171.375,24.82846 170.08179,20.575339 167.625,16.9375 C 165.16821,13.299661 161.692,10.147974 156.4375,7.625 C 151.18301,5.1020259 145.38269,3.1915979 138.11633,1.96875 C 130.84998,0.74590209 122.77152,0 114.21682,0 C 105.66212,0 97.608186,0.74590209 90.341827,1.96875 C 83.075468,3.1915979 76.315153,5.1020259 71.060562,7.625 C 65.80599,10.147975 61.767363,13.299661 59.310574,16.9375 C 56.853786,20.575339 55.625001,24.82846 55.625,29.21875 L 55.625,85.34375 C 55.625,89.704035 56.853786,93.92591 59.310574,97.56375 C 61.767363,101.20159 65.805991,104.35353 71.060562,106.87625 C 76.315153,109.39897 83.075468,111.30939 90.341827,112.5325 C 97.608186,113.75561 105.66212,114.375 114.21682,114.375 L 151.53125,114.375 L 151.53125,120.15625 L 102.96875,120.15625 L 102.96875,129.21875 C 102.96875,133.60904 104.29414,137.86216 106.75,141.5 C 109.20586,145.13784 113.22323,148.28953 118.47783,150.8125 C 123.73242,153.33547 130.52398,155.2459 137.79034,156.46875 C 145.0567,157.6916 153.11063,158.28125 161.66534,158.28125 L 128.65625,158.28125 z M 143.34375,122.78125 C 147.31485,122.78125 150.53125,126.99765 150.53125,132.34375 C 150.53125,137.68985 147.31485,141.90625 143.34375,141.90625 C 139.37266,141.90625 136.15625,137.68985 136.15625,132.34375 C 136.15625,126.99765 139.37266,122.78125 143.34375,122.78125 z " fill="#FFD43B"/>
  </g>
  
  <!-- Text -->
  <text x="200" y="270" font-family="Arial, sans-serif" font-size="24" font-weight="bold" text-anchor="middle" fill="#306998">PandaDock</text>
</svg>
